<svg width="512" height="512" viewBox="0 0 512 512" fill="none" xmlns="http://www.w3.org/2000/svg">
  <!-- Background Circle with Gradient -->
  <circle cx="256" cy="256" r="256" fill="url(#gradient1)"/>
  
  <!-- AI Brain Icon -->
  <path d="M256 100C194.144 100 144 150.144 144 212C144 273.856 194.144 324 256 324C317.856 324 368 273.856 368 212C368 150.144 317.856 100 256 100Z" fill="white" opacity="0.9"/>
  
  <!-- Neural Network Lines -->
  <circle cx="200" cy="180" r="12" fill="#3B82F6"/>
  <circle cx="256" cy="160" r="12" fill="#8B5CF6"/>
  <circle cx="312" cy="180" r="12" fill="#EC4899"/>
  <circle cx="220" cy="240" r="12" fill="#10B981"/>
  <circle cx="292" cy="240" r="12" fill="#F59E0B"/>
  <circle cx="256" cy="280" r="12" fill="#EF4444"/>
  
  <line x1="200" y1="180" x2="256" y2="160" stroke="white" stroke-width="3" opacity="0.6"/>
  <line x1="256" y1="160" x2="312" y2="180" stroke="white" stroke-width="3" opacity="0.6"/>
  <line x1="200" y1="180" x2="220" y2="240" stroke="white" stroke-width="3" opacity="0.6"/>
  <line x1="312" y1="180" x2="292" y2="240" stroke="white" stroke-width="3" opacity="0.6"/>
  <line x1="220" y1="240" x2="256" y2="280" stroke="white" stroke-width="3" opacity="0.6"/>
  <line x1="292" y1="240" x2="256" y2="280" stroke="white" stroke-width="3" opacity="0.6"/>
  
  <!-- Content Icon (Play Button) -->
  <path d="M256 340L256 440L340 390L256 340Z" fill="white" opacity="0.9"/>
  <rect x="180" y="360" width="40" height="60" rx="8" fill="white" opacity="0.9"/>
  <rect x="230" y="370" width="40" height="50" rx="8" fill="white" opacity="0.9"/>
  
  <!-- Sparkle Effects -->
  <path d="M400 120L410 140L430 130L420 150L440 160L420 170L430 190L410 180L400 200L390 180L370 190L380 170L360 160L380 150L370 130L390 140L400 120Z" fill="white" opacity="0.8"/>
  <path d="M100 300L108 315L123 307L115 322L130 330L115 338L123 353L108 345L100 360L92 345L77 353L85 338L70 330L85 322L77 307L92 315L100 300Z" fill="white" opacity="0.8"/>
  
  <!-- Gradient Definition -->
  <defs>
    <linearGradient id="gradient1" x1="0" y1="0" x2="512" y2="512" gradientUnits="userSpaceOnUse">
      <stop offset="0%" stop-color="#3B82F6"/>
      <stop offset="50%" stop-color="#8B5CF6"/>
      <stop offset="100%" stop-color="#EC4899"/>
    </linearGradient>
  </defs>
</svg>
